<svg id="visual" viewBox="0 0 900 450" width="900" height="450" xmlns="http://www.w3.org/2000/svg" xmlns:xlink="http://www.w3.org/1999/xlink" version="1.1"><rect x="0" y="0" width="900" height="450" fill="#18bc9c"></rect><path d="M0 271L21.5 271.5C43 272 86 273 128.8 278.7C171.7 284.3 214.3 294.7 257.2 299.8C300 305 343 305 385.8 306.3C428.7 307.7 471.3 310.3 514.2 305.3C557 300.3 600 287.7 642.8 281.5C685.7 275.3 728.3 275.7 771.2 278.5C814 281.3 857 286.7 878.5 289.3L900 292L900 451L878.5 451C857 451 814 451 771.2 451C728.3 451 685.7 451 642.8 451C600 451 557 451 514.2 451C471.3 451 428.7 451 385.8 451C343 451 300 451 257.2 451C214.3 451 171.7 451 128.8 451C86 451 43 451 21.5 451L0 451Z" fill="#5ef1c0"></path><path d="M0 349L21.5 342.5C43 336 86 323 128.8 316.3C171.7 309.7 214.3 309.3 257.2 313.5C300 317.7 343 326.3 385.8 328C428.7 329.7 471.3 324.3 514.2 322.8C557 321.3 600 323.7 642.8 329.8C685.7 336 728.3 346 771.2 343.7C814 341.3 857 326.7 878.5 319.3L900 312L900 451L878.5 451C857 451 814 451 771.2 451C728.3 451 685.7 451 642.8 451C600 451 557 451 514.2 451C471.3 451 428.7 451 385.8 451C343 451 300 451 257.2 451C214.3 451 171.7 451 128.8 451C86 451 43 451 21.5 451L0 451Z" fill="#91f5cf"></path><path d="M0 341L21.5 340.5C43 340 86 339 128.8 343.8C171.7 348.7 214.3 359.3 257.2 361.8C300 364.3 343 358.7 385.8 360C428.7 361.3 471.3 369.7 514.2 369.3C557 369 600 360 642.8 354.2C685.7 348.3 728.3 345.7 771.2 348.2C814 350.7 857 358.3 878.5 362.2L900 366L900 451L878.5 451C857 451 814 451 771.2 451C728.3 451 685.7 451 642.8 451C600 451 557 451 514.2 451C471.3 451 428.7 451 385.8 451C343 451 300 451 257.2 451C214.3 451 171.7 451 128.8 451C86 451 43 451 21.5 451L0 451Z" fill="#b9f9df"></path><path d="M0 368L21.5 370.7C43 373.3 86 378.7 128.8 381.3C171.7 384 214.3 384 257.2 387C300 390 343 396 385.8 394.5C428.7 393 471.3 384 514.2 383.2C557 382.3 600 389.7 642.8 391.3C685.7 393 728.3 389 771.2 385.8C814 382.7 857 380.3 878.5 379.2L900 378L900 451L878.5 451C857 451 814 451 771.2 451C728.3 451 685.7 451 642.8 451C600 451 557 451 514.2 451C471.3 451 428.7 451 385.8 451C343 451 300 451 257.2 451C214.3 451 171.7 451 128.8 451C86 451 43 451 21.5 451L0 451Z" fill="#ddfcef"></path><path d="M0 394L21.5 395.3C43 396.7 86 399.3 128.8 399.2C171.7 399 214.3 396 257.2 396.5C300 397 343 401 385.8 403C428.7 405 471.3 405 514.2 408.7C557 412.3 600 419.7 642.8 419.8C685.7 420 728.3 413 771.2 409.8C814 406.7 857 407.3 878.5 407.7L900 408L900 451L878.5 451C857 451 814 451 771.2 451C728.3 451 685.7 451 642.8 451C600 451 557 451 514.2 451C471.3 451 428.7 451 385.8 451C343 451 300 451 257.2 451C214.3 451 171.7 451 128.8 451C86 451 43 451 21.5 451L0 451Z" fill="#ffffff"></path></svg>