<svg id="visual" viewBox="0 0 900 600" width="900" height="600" xmlns="http://www.w3.org/2000/svg" xmlns:xlink="http://www.w3.org/1999/xlink" version="1.1"><rect x="0" y="0" width="900" height="600" fill="#001220"></rect><path d="M0 444L13.7 440.3C27.3 436.7 54.7 429.3 82 425.3C109.3 421.3 136.7 420.7 163.8 424C191 427.3 218 434.7 245.2 437C272.3 439.3 299.7 436.7 327 436.5C354.3 436.3 381.7 438.7 409 433.2C436.3 427.7 463.7 414.3 491 411.7C518.3 409 545.7 417 573 421.3C600.3 425.7 627.7 426.3 654.8 429.5C682 432.7 709 438.3 736.2 432.8C763.3 427.3 790.7 410.7 818 402C845.3 393.3 872.7 392.7 886.3 392.3L900 392L900 601L886.3 601C872.7 601 845.3 601 818 601C790.7 601 763.3 601 736.2 601C709 601 682 601 654.8 601C627.7 601 600.3 601 573 601C545.7 601 518.3 601 491 601C463.7 601 436.3 601 409 601C381.7 601 354.3 601 327 601C299.7 601 272.3 601 245.2 601C218 601 191 601 163.8 601C136.7 601 109.3 601 82 601C54.7 601 27.3 601 13.7 601L0 601Z" fill="#18bc9c"></path><path d="M0 462L13.7 465.7C27.3 469.3 54.7 476.7 82 473.7C109.3 470.7 136.7 457.3 163.8 453.3C191 449.3 218 454.7 245.2 457C272.3 459.3 299.7 458.7 327 456.3C354.3 454 381.7 450 409 452.8C436.3 455.7 463.7 465.3 491 464C518.3 462.7 545.7 450.3 573 444.5C600.3 438.7 627.7 439.3 654.8 445.5C682 451.7 709 463.3 736.2 464C763.3 464.7 790.7 454.3 818 453.8C845.3 453.3 872.7 462.7 886.3 467.3L900 472L900 601L886.3 601C872.7 601 845.3 601 818 601C790.7 601 763.3 601 736.2 601C709 601 682 601 654.8 601C627.7 601 600.3 601 573 601C545.7 601 518.3 601 491 601C463.7 601 436.3 601 409 601C381.7 601 354.3 601 327 601C299.7 601 272.3 601 245.2 601C218 601 191 601 163.8 601C136.7 601 109.3 601 82 601C54.7 601 27.3 601 13.7 601L0 601Z" fill="#008e93"></path><path d="M0 515L13.7 508.7C27.3 502.3 54.7 489.7 82 489.2C109.3 488.7 136.7 500.3 163.8 504.7C191 509 218 506 245.2 499.2C272.3 492.3 299.7 481.7 327 481.2C354.3 480.7 381.7 490.3 409 496.8C436.3 503.3 463.7 506.7 491 508.7C518.3 510.7 545.7 511.3 573 510.7C600.3 510 627.7 508 654.8 504C682 500 709 494 736.2 494.7C763.3 495.3 790.7 502.7 818 506.7C845.3 510.7 872.7 511.3 886.3 511.7L900 512L900 601L886.3 601C872.7 601 845.3 601 818 601C790.7 601 763.3 601 736.2 601C709 601 682 601 654.8 601C627.7 601 600.3 601 573 601C545.7 601 518.3 601 491 601C463.7 601 436.3 601 409 601C381.7 601 354.3 601 327 601C299.7 601 272.3 601 245.2 601C218 601 191 601 163.8 601C136.7 601 109.3 601 82 601C54.7 601 27.3 601 13.7 601L0 601Z" fill="#006175"></path><path d="M0 507L13.7 511.5C27.3 516 54.7 525 82 527.3C109.3 529.7 136.7 525.3 163.8 523.2C191 521 218 521 245.2 519.5C272.3 518 299.7 515 327 518.5C354.3 522 381.7 532 409 531.5C436.3 531 463.7 520 491 515.5C518.3 511 545.7 513 573 519.3C600.3 525.7 627.7 536.3 654.8 535.7C682 535 709 523 736.2 521C763.3 519 790.7 527 818 531.7C845.3 536.3 872.7 537.7 886.3 538.3L900 539L900 601L886.3 601C872.7 601 845.3 601 818 601C790.7 601 763.3 601 736.2 601C709 601 682 601 654.8 601C627.7 601 600.3 601 573 601C545.7 601 518.3 601 491 601C463.7 601 436.3 601 409 601C381.7 601 354.3 601 327 601C299.7 601 272.3 601 245.2 601C218 601 191 601 163.8 601C136.7 601 109.3 601 82 601C54.7 601 27.3 601 13.7 601L0 601Z" fill="#04374c"></path><path d="M0 546L13.7 546.5C27.3 547 54.7 548 82 548.7C109.3 549.3 136.7 549.7 163.8 554.2C191 558.7 218 567.3 245.2 572C272.3 576.7 299.7 577.3 327 576.8C354.3 576.3 381.7 574.7 409 570.3C436.3 566 463.7 559 491 555.5C518.3 552 545.7 552 573 556.3C600.3 560.7 627.7 569.3 654.8 573.3C682 577.3 709 576.7 736.2 572.5C763.3 568.3 790.7 560.7 818 561.2C845.3 561.7 872.7 570.3 886.3 574.7L900 579L900 601L886.3 601C872.7 601 845.3 601 818 601C790.7 601 763.3 601 736.2 601C709 601 682 601 654.8 601C627.7 601 600.3 601 573 601C545.7 601 518.3 601 491 601C463.7 601 436.3 601 409 601C381.7 601 354.3 601 327 601C299.7 601 272.3 601 245.2 601C218 601 191 601 163.8 601C136.7 601 109.3 601 82 601C54.7 601 27.3 601 13.7 601L0 601Z" fill="#001122"></path></svg>